<svg width="56" height="56" viewBox="0 0 56 56" fill="none" xmlns="http://www.w3.org/2000/svg">
<path d="M51.6799 22.5313H37.6799C37.4393 22.5313 37.2424 22.7281 37.2424 22.9688V25.5938C37.2424 25.8344 37.4393 26.0313 37.6799 26.0313H51.6799C51.9205 26.0313 52.1174 25.8344 52.1174 25.5938V22.9688C52.1174 22.7281 51.9205 22.5313 51.6799 22.5313ZM44.3518 29.9688H37.6799C37.4393 29.9688 37.2424 30.1656 37.2424 30.4063V33.0313C37.2424 33.2719 37.4393 33.4688 37.6799 33.4688H44.3518C44.5924 33.4688 44.7893 33.2719 44.7893 33.0313V30.4063C44.7893 30.1656 44.5924 29.9688 44.3518 29.9688ZM26.1025 17.6367H23.7346C23.3955 17.6367 23.1221 17.9102 23.1221 18.2492V31.8117C23.1221 32.0086 23.215 32.1891 23.3736 32.3039L31.5166 38.243C31.79 38.4398 32.1729 38.3852 32.3697 38.1117L33.7752 36.1922V36.1867C33.9721 35.9133 33.9119 35.5305 33.6385 35.3336L26.7096 30.3242V18.2492C26.715 17.9102 26.4361 17.6367 26.1025 17.6367Z" fill="#ACD037"/>
<path d="M44.0125 36.8539H40.8516C40.5454 36.8539 40.2555 37.0125 40.0914 37.275C39.3969 38.3742 38.5875 39.3914 37.6578 40.3211C36.0555 41.9234 34.1907 43.1812 32.118 44.0562C29.9688 44.964 27.6883 45.4234 25.3368 45.4234C22.9797 45.4234 20.6993 44.964 18.5555 44.0562C16.4828 43.1812 14.618 41.9234 13.0157 40.3211C11.4133 38.7187 10.1555 36.8539 9.28051 34.7812C8.37269 32.6375 7.91332 30.357 7.91332 28C7.91332 25.643 8.37269 23.368 9.28051 21.2187C10.1555 19.1461 11.4133 17.2812 13.0157 15.6789C14.618 14.0766 16.4828 12.8187 18.5555 11.9437C20.6993 11.0359 22.9852 10.5766 25.3368 10.5766C27.6938 10.5766 29.9743 11.0359 32.118 11.9437C34.1907 12.8187 36.0555 14.0766 37.6578 15.6789C38.5875 16.6086 39.3969 17.6258 40.0914 18.725C40.2555 18.9875 40.5454 19.1461 40.8516 19.1461H44.0125C44.3899 19.1461 44.6305 18.7523 44.461 18.4187C40.8954 11.3258 33.6657 6.71562 25.5938 6.62266C13.7758 6.475 3.95941 16.1492 3.93754 27.9562C3.91566 39.7851 13.5024 49.3828 25.3313 49.3828C33.5071 49.3828 40.8571 44.7562 44.461 37.5812C44.6305 37.2476 44.3844 36.8539 44.0125 36.8539Z" fill="#ACD037"/>
</svg>
