<svg width="57" height="57" viewBox="0 0 57 57" fill="none" xmlns="http://www.w3.org/2000/svg">
<path d="M7.125 28.5H28.5V32.0625H7.125V28.5Z" fill="#ACD037"/>
<path d="M3.5625 19.5938H21.375V23.1562H3.5625V19.5938Z" fill="#ACD037"/>
<path d="M53.293 29.5794L47.9493 17.1107C47.8122 16.7902 47.5839 16.5171 47.2929 16.3252C47.0019 16.1333 46.6609 16.0311 46.3123 16.0312H40.9686V12.4688C40.9686 11.9963 40.7809 11.5433 40.4469 11.2092C40.1128 10.8752 39.6597 10.6875 39.1873 10.6875H10.6873V14.25H37.4061V36.6154C36.5944 37.0867 35.8841 37.714 35.3161 38.4612C34.748 39.2084 34.3336 40.0606 34.0965 40.9688H22.9031C22.4696 39.2896 21.4385 37.8263 20.0033 36.853C18.568 35.8797 16.827 35.4633 15.1066 35.6818C13.3863 35.9003 11.8047 36.7387 10.6583 38.04C9.51187 39.3412 8.87939 41.0158 8.87939 42.75C8.87939 44.4842 9.51187 46.1588 10.6583 47.46C11.8047 48.7613 13.3863 49.5997 15.1066 49.8182C16.827 50.0367 18.568 49.6203 20.0033 48.647C21.4385 47.6737 22.4696 46.2104 22.9031 44.5312H34.0965C34.484 46.06 35.3702 47.4159 36.6148 48.3844C37.8594 49.3529 39.3915 49.8788 40.9686 49.8788C42.5457 49.8788 44.0777 49.3529 45.3223 48.3844C46.567 47.4159 47.4532 46.06 47.8406 44.5312H51.6561C52.1285 44.5312 52.5816 44.3436 52.9156 44.0095C53.2497 43.6755 53.4373 43.2224 53.4373 42.75V30.2812C53.4374 30.0399 53.3883 29.8011 53.293 29.5794ZM16.0311 46.3125C15.3265 46.3125 14.6377 46.1036 14.0519 45.7121C13.466 45.3207 13.0094 44.7643 12.7398 44.1133C12.4701 43.4623 12.3996 42.746 12.537 42.055C12.6745 41.3639 13.0138 40.7292 13.512 40.2309C14.0102 39.7327 14.645 39.3934 15.3361 39.256C16.0271 39.1185 16.7434 39.189 17.3944 39.4587C18.0454 39.7283 18.6017 40.1849 18.9932 40.7708C19.3846 41.3566 19.5936 42.0454 19.5936 42.75C19.5926 43.6945 19.217 44.6001 18.5491 45.268C17.8812 45.9359 16.9756 46.3116 16.0311 46.3125ZM40.9686 19.5938H45.1367L48.9557 28.5H40.9686V19.5938ZM40.9686 46.3125C40.264 46.3125 39.5752 46.1036 38.9894 45.7121C38.4035 45.3207 37.9469 44.7643 37.6773 44.1133C37.4076 43.4623 37.3371 42.746 37.4745 42.055C37.612 41.3639 37.9513 40.7292 38.4495 40.2309C38.9477 39.7327 39.5825 39.3934 40.2736 39.256C40.9646 39.1185 41.6809 39.189 42.3319 39.4587C42.9828 39.7283 43.5392 40.1849 43.9307 40.7708C44.3221 41.3566 44.5311 42.0454 44.5311 42.75C44.5301 43.6945 44.1545 44.6001 43.4866 45.268C42.8187 45.9359 41.9131 46.3116 40.9686 46.3125ZM49.8748 40.9688H47.8406C47.4483 39.443 46.5607 38.0906 45.317 37.1235C44.0734 36.1564 42.544 35.6294 40.9686 35.625V32.0625H49.8748V40.9688Z" fill="#ACD037"/>
</svg>
