<svg width="42" height="33" viewBox="0 0 42 33" fill="none" xmlns="http://www.w3.org/2000/svg">
<path d="M42 13.5537V14.7323C42 15.7086 41.2165 16.5001 40.25 16.5001H39.6667L37.7626 29.9643C37.5163 31.7062 36.0396 33 34.2978 33H7.70219C5.96043 33 4.48372 31.7062 4.23733 29.9643L2.33333 16.5001H1.75C0.78349 16.5001 0 15.7086 0 14.7323V13.5537C0 12.5773 0.78349 11.7858 1.75 11.7858H6.66028L14.4463 0.970977C15.2043 -0.0817751 16.6635 -0.314615 17.7058 0.451083C18.748 1.21678 18.9784 2.69094 18.2204 3.74377L12.4306 11.7858H29.5694L23.7796 3.7437C23.0216 2.69094 23.2521 1.21671 24.2943 0.451009C25.3364 -0.314689 26.7958 -0.0819224 27.5537 0.970904L35.3397 11.7858H40.25C41.2165 11.7858 42 12.5773 42 13.5537ZM22.75 26.5179V18.268C22.75 17.2916 21.9665 16.5001 21 16.5001C20.0335 16.5001 19.25 17.2916 19.25 18.268V26.5179C19.25 27.4943 20.0335 28.2857 21 28.2857C21.9665 28.2857 22.75 27.4943 22.75 26.5179ZM30.9167 26.5179V18.268C30.9167 17.2916 30.1332 16.5001 29.1667 16.5001C28.2002 16.5001 27.4167 17.2916 27.4167 18.268V26.5179C27.4167 27.4943 28.2002 28.2857 29.1667 28.2857C30.1332 28.2857 30.9167 27.4943 30.9167 26.5179ZM14.5833 26.5179V18.268C14.5833 17.2916 13.7998 16.5001 12.8333 16.5001C11.8668 16.5001 11.0833 17.2916 11.0833 18.268V26.5179C11.0833 27.4943 11.8668 28.2857 12.8333 28.2857C13.7998 28.2857 14.5833 27.4943 14.5833 26.5179Z" fill="#ACD037"/>
</svg>
