<svg width="43" height="32" viewBox="0 0 43 32" fill="none" xmlns="http://www.w3.org/2000/svg">
<path d="M40.3125 0H2.6875C1.97473 0 1.29115 0.337143 0.78715 0.937259C0.283146 1.53738 0 2.35131 0 3.2V28.8C0 29.6487 0.283146 30.4626 0.78715 31.0627C1.29115 31.6629 1.97473 32 2.6875 32H40.3125C41.0253 32 41.7088 31.6629 42.2129 31.0627C42.7169 30.4626 43 29.6487 43 28.8V3.2C43 2.35131 42.7169 1.53738 42.2129 0.937259C41.7088 0.337143 41.0253 0 40.3125 0ZM22.8438 8H25.5312V11.2H22.8438V8ZM22.8438 14.4H25.5312V17.6H22.8438V14.4ZM17.4688 8H20.1562V11.2H17.4688V8ZM17.4688 14.4H20.1562V17.6H17.4688V14.4ZM12.0938 8H14.7812V11.2H12.0938V8ZM9.40625 25.6H6.71875V22.4H9.40625V25.6ZM9.40625 17.6H6.71875V14.4H9.40625V17.6ZM9.40625 11.2H6.71875V8H9.40625V11.2ZM12.0938 14.4H14.7812V17.6H12.0938V14.4ZM30.745 25.6H12.2684V22.4H30.745V25.6ZM30.9062 17.6H28.2188V14.4H30.9062V17.6ZM30.9062 11.2H28.2188V8H30.9062V11.2ZM36.2006 25.6H33.5938V22.4H36.2006V25.6ZM36.2812 17.6H33.5938V14.4H36.2812V17.6ZM36.2812 11.2H33.5938V8H36.2812V11.2Z" fill="#ACD037"/>
</svg>
