<svg width="39" height="33" viewBox="0 0 39 33" fill="none" xmlns="http://www.w3.org/2000/svg">
<path d="M18.5714 27.5C18.5704 25.3348 19.1247 23.2046 20.1826 21.308C21.2406 19.4113 22.7678 17.81 24.6219 16.6532C26.476 15.4965 28.5965 14.822 30.7859 14.6926C32.9753 14.5632 35.1622 14.9832 37.1429 15.9133V3.66667C37.1429 1.65 35.4714 0 33.4286 0H3.71429C1.67143 0 0 1.65 0 3.66667V25.6667C0 27.6833 1.67143 29.3333 3.71429 29.3333H18.72C18.6271 28.7283 18.5714 28.1233 18.5714 27.5ZM3.71429 3.66667L18.5714 12.8333L33.4286 3.66667V7.33333L18.5714 16.5L3.71429 7.33333V3.66667ZM28.4886 33L21.9143 26.51L24.5329 23.925L28.47 27.8117L36.3443 20.0383L39 22.6233L28.4886 33Z" fill="#ACD037"/>
</svg>
