<svg width="31" height="31" viewBox="0 0 31 31" fill="none" xmlns="http://www.w3.org/2000/svg">
<path d="M9.05566 15.5L13.889 20.3333L21.9446 12.2778" stroke="#ACD037" stroke-width="2" stroke-linecap="round" stroke-linejoin="round"/>
<path d="M1 15.5C1 13.5958 1.37505 11.7103 2.10375 9.95109C2.83244 8.19187 3.9005 6.5934 5.24695 5.24695C6.5934 3.9005 8.19187 2.83244 9.95109 2.10375C11.7103 1.37505 13.5958 1 15.5 1C17.4042 1 19.2897 1.37505 21.0489 2.10375C22.8081 2.83244 24.4066 3.9005 25.753 5.24695C27.0995 6.5934 28.1676 8.19187 28.8963 9.95109C29.6249 11.7103 30 13.5958 30 15.5C30 19.3456 28.4723 23.0338 25.753 25.753C23.0338 28.4723 19.3456 30 15.5 30C11.6544 30 7.96623 28.4723 5.24695 25.753C2.52767 23.0338 1 19.3456 1 15.5V15.5Z" stroke="#ACD037" stroke-width="2" stroke-linecap="round"/>
</svg>
