<svg width="36" height="33" viewBox="0 0 36 33" fill="none" xmlns="http://www.w3.org/2000/svg">
<path d="M34.881 7.13795L22.1887 0.157168C22.0012 0.0540634 21.7908 0 21.5769 0C21.363 0 21.1525 0.0540634 20.9651 0.157168L8.27279 7.13795C8.07379 7.24752 7.90784 7.40849 7.79227 7.60406C7.67669 7.79963 7.61572 8.02263 7.61572 8.2498C7.61572 8.47697 7.67669 8.69998 7.79227 8.89555C7.90784 9.09112 8.07379 9.25208 8.27279 9.36165L20.3077 15.9807V29.5856L16.4543 27.466L15.2307 29.6884L20.9651 32.8425C21.1525 32.9458 21.3629 33 21.5769 33C21.7909 33 22.0013 32.9458 22.1887 32.8425L34.881 25.8617C35.0801 25.7522 35.2461 25.5912 35.3618 25.3957C35.4774 25.2001 35.5384 24.977 35.5385 24.7498V8.2498C35.5384 8.02259 35.4774 7.79956 35.3618 7.60399C35.2461 7.40841 35.0801 7.24747 34.881 7.13795ZM21.5769 2.71848L31.6356 8.2498L21.5769 13.7811L11.5182 8.2498L21.5769 2.71848ZM33 23.9997L22.8461 29.5844V15.9794L33 10.3948V23.9997Z" fill="#ACD037"/>
<path d="M10.1539 16.4999H0V13.9614H10.1539V16.4999Z" fill="#ACD037"/>
<path d="M12.6924 26.6538H2.53857V24.1153H12.6924V26.6538Z" fill="#ACD037"/>
<path d="M15.231 21.5769H5.07715V19.0384H15.231V21.5769Z" fill="#ACD037"/>
</svg>
