<svg width="21" height="22" viewBox="0 0 21 22" fill="none" xmlns="http://www.w3.org/2000/svg">
<path d="M9.18597 1.25644C9.48883 1.08826 9.82954 1 10.176 1C10.5224 1 10.8631 1.08826 11.1659 1.25644L18.8279 5.51205C18.9867 5.60038 19.1191 5.72958 19.2112 5.88625C19.3033 6.04292 19.3519 6.22138 19.3519 6.40314V14.7991C19.3518 15.1628 19.2545 15.5197 19.07 15.8331C18.8856 16.1464 18.6207 16.4048 18.3028 16.5813L11.1659 20.5474C10.8631 20.7156 10.5224 20.8038 10.176 20.8038C9.82954 20.8038 9.48883 20.7156 9.18597 20.5474L2.04912 16.5813C1.73138 16.4049 1.46658 16.1467 1.28212 15.8335C1.09767 15.5204 1.00027 15.1636 1 14.8002V6.40314C0.999993 6.22138 1.04857 6.04292 1.14071 5.88625C1.23285 5.72958 1.3652 5.60038 1.52405 5.51205L9.18699 1.25644H9.18597Z" stroke="white" stroke-width="2" stroke-linecap="round" stroke-linejoin="round"/>
<path d="M10.176 10.9014V20.5871M1 5.80364L10.176 10.9014L1 5.80364ZM10.176 10.9014L19.3519 5.80364L10.176 10.9014Z" stroke="white" stroke-width="2" stroke-linejoin="round"/>
<path d="M5.58771 8.35252L14.7637 3.25476" stroke="white" stroke-width="2" stroke-linecap="round" stroke-linejoin="round"/>
<path d="M4.05826 11.2359L7.11691 12.9406" stroke="white" stroke-width="2" stroke-linecap="round" stroke-linejoin="round"/>
</svg>
