<svg width="20" height="20" viewBox="0 0 20 20" fill="none" xmlns="http://www.w3.org/2000/svg">
<path d="M19.1834 18.102L17.8164 14H16.3164L17.1494 18H2.48344L3.31644 14H1.81644L0.448441 18.102C0.101441 19.146 0.716441 20 1.81644 20H17.8164C18.9164 20 19.5314 19.146 19.1834 18.102ZM14.8164 5C14.8164 3.67392 14.2897 2.40215 13.352 1.46447C12.4143 0.526784 11.1425 0 9.81644 0C8.49036 0 7.21859 0.526784 6.28091 1.46447C5.34323 2.40215 4.81644 3.67392 4.81644 5C4.81644 9.775 9.81644 15 9.81644 15C9.81644 15 14.8164 9.775 14.8164 5ZM7.11644 5.06C7.11644 3.569 8.32444 2.361 9.81644 2.361C10.5324 2.361 11.219 2.64541 11.7253 3.15167C12.2315 3.65792 12.5159 4.34455 12.5159 5.0605C12.5159 5.77645 12.2315 6.46308 11.7253 6.96933C11.219 7.47559 10.5324 7.76 9.81644 7.76C9.10036 7.76 8.4136 7.47554 7.90725 6.96919C7.4009 6.46284 7.11644 5.77608 7.11644 5.06Z" fill="white"/>
</svg>
