<svg width="19" height="18" viewBox="0 0 19 18" fill="none" xmlns="http://www.w3.org/2000/svg">
<path d="M16.2812 0H2.28125C1.18125 0 0.28125 0.9 0.28125 2V16C0.28125 17.1 1.18125 18 2.28125 18H16.2812C17.3813 18 18.2812 17.1 18.2812 16V2C18.2812 0.9 17.3813 0 16.2812 0ZM7.99125 13.29C7.89874 13.3827 7.78885 13.4563 7.66787 13.5064C7.5469 13.5566 7.41722 13.5824 7.28625 13.5824C7.15528 13.5824 7.0256 13.5566 6.90463 13.5064C6.78365 13.4563 6.67376 13.3827 6.58125 13.29L2.99125 9.7C2.89867 9.60742 2.82523 9.49751 2.77512 9.37654C2.72502 9.25558 2.69923 9.12593 2.69923 8.995C2.69923 8.86407 2.72502 8.73442 2.77512 8.61346C2.82523 8.49249 2.89867 8.38258 2.99125 8.29C3.08383 8.19742 3.19374 8.12398 3.31471 8.07387C3.43567 8.02377 3.56532 7.99798 3.69625 7.99798C3.82718 7.99798 3.95683 8.02377 4.07779 8.07387C4.19876 8.12398 4.30867 8.19742 4.40125 8.29L7.28125 11.17L14.1612 4.29C14.3482 4.10302 14.6018 3.99798 14.8662 3.99798C15.1307 3.99798 15.3843 4.10302 15.5713 4.29C15.7582 4.47698 15.8633 4.73057 15.8633 4.995C15.8633 5.25943 15.7582 5.51302 15.5713 5.7L7.99125 13.29Z" fill="white"/>
</svg>
