<svg width="29" height="23" viewBox="0 0 29 23" fill="none" xmlns="http://www.w3.org/2000/svg">
<path d="M2.28125 10H14.2812V12H2.28125V10Z" fill="white"/>
<path d="M0.28125 5H10.2812V7H0.28125V5Z" fill="white"/>
<path d="M28.2006 10.606L25.2006 3.606C25.1236 3.42608 24.9955 3.27273 24.8321 3.165C24.6687 3.05727 24.4773 2.99989 24.2816 3H21.2816V1C21.2816 0.734784 21.1762 0.48043 20.9887 0.292893C20.8012 0.105357 20.5468 0 20.2816 0H4.28158V2H19.2816V14.556C18.8259 14.8206 18.4271 15.1728 18.1082 15.5922C17.7894 16.0117 17.5567 16.4902 17.4236 17H11.1396C10.8962 16.0573 10.3174 15.2358 9.51158 14.6894C8.7058 14.143 7.7284 13.9092 6.76258 14.0319C5.79677 14.1546 4.90885 14.6253 4.26526 15.3558C3.62167 16.0863 3.2666 17.0264 3.2666 18C3.2666 18.9736 3.62167 19.9137 4.26526 20.6442C4.90885 21.3747 5.79677 21.8454 6.76258 21.9681C7.7284 22.0908 8.7058 21.857 9.51158 21.3106C10.3174 20.7642 10.8962 19.9427 11.1396 19H17.4236C17.6411 19.8582 18.1386 20.6194 18.8374 21.1632C19.5361 21.7069 20.3962 22.0021 21.2816 22.0021C22.167 22.0021 23.0271 21.7069 23.7258 21.1632C24.4246 20.6194 24.922 19.8582 25.1396 19H27.2816C27.5468 19 27.8012 18.8946 27.9887 18.7071C28.1762 18.5196 28.2816 18.2652 28.2816 18V11C28.2816 10.8645 28.2541 10.7305 28.2006 10.606ZM7.28158 20C6.88602 20 6.49934 19.8827 6.17044 19.6629C5.84155 19.4432 5.5852 19.1308 5.43383 18.7654C5.28245 18.3999 5.24284 17.9978 5.32001 17.6098C5.39718 17.2219 5.58767 16.8655 5.86737 16.5858C6.14708 16.3061 6.50344 16.1156 6.8914 16.0384C7.27937 15.9613 7.6815 16.0009 8.04695 16.1522C8.4124 16.3036 8.72476 16.56 8.94452 16.8889C9.16429 17.2178 9.28158 17.6044 9.28158 18C9.28106 18.5303 9.07017 19.0387 8.69521 19.4136C8.32026 19.7886 7.81186 19.9995 7.28158 20ZM21.2816 5H23.6216L25.7656 10H21.2816V5ZM21.2816 20C20.886 20 20.4993 19.8827 20.1704 19.6629C19.8415 19.4432 19.5852 19.1308 19.4338 18.7654C19.2825 18.3999 19.2428 17.9978 19.32 17.6098C19.3972 17.2219 19.5877 16.8655 19.8674 16.5858C20.1471 16.3061 20.5034 16.1156 20.8914 16.0384C21.2794 15.9613 21.6815 16.0009 22.047 16.1522C22.4124 16.3036 22.7248 16.56 22.9445 16.8889C23.1643 17.2178 23.2816 17.6044 23.2816 18C23.2811 18.5303 23.0702 19.0387 22.6952 19.4136C22.3203 19.7886 21.8119 19.9995 21.2816 20ZM26.2816 17H25.1396C24.9193 16.1434 24.421 15.3842 23.7228 14.8413C23.0246 14.2983 22.166 14.0025 21.2816 14V12H26.2816V17Z" fill="white"/>
</svg>
