<svg width="68" height="53" viewBox="0 0 68 53" fill="none" xmlns="http://www.w3.org/2000/svg">
<path d="M4.81775 24.0886H33.724V28.9063H4.81775V24.0886Z" fill="#ACD037"/>
<path d="M0 12.0443H24.0886V16.862H0V12.0443Z" fill="#ACD037"/>
<path d="M67.2528 25.5484L60.0263 8.68634C59.8408 8.25294 59.5322 7.88355 59.1386 7.62404C58.7451 7.36452 58.284 7.22632 57.8125 7.22657H50.586V2.40886C50.586 1.76999 50.3322 1.15729 49.8804 0.705539C49.4287 0.25379 48.816 0 48.1771 0H9.63538V4.81772H45.7682V35.0633C44.6706 35.7007 43.71 36.5491 42.9418 37.5595C42.1737 38.5699 41.6132 39.7225 41.2926 40.9506H26.1553C25.569 38.6799 24.1747 36.7009 22.2337 35.3847C20.2927 34.0684 17.9383 33.5053 15.6118 33.8008C13.2852 34.0963 11.1464 35.2302 9.59606 36.9899C8.04575 38.7495 7.19043 41.0142 7.19043 43.3594C7.19043 45.7046 8.04575 47.9693 9.59606 49.729C11.1464 51.4887 13.2852 52.6226 15.6118 52.9181C17.9383 53.2136 20.2927 52.6504 22.2337 51.3342C24.1747 50.018 25.569 48.039 26.1553 45.7683H41.2926C41.8166 47.8357 43.015 49.6693 44.6982 50.9791C46.3814 52.2889 48.4532 53 50.586 53C52.7187 53 54.7906 52.2889 56.4737 50.9791C58.1569 49.6693 59.3553 47.8357 59.8793 45.7683H65.0391C65.678 45.7683 66.2907 45.5145 66.7424 45.0628C67.1942 44.611 67.448 43.9983 67.448 43.3594V26.4974C67.4481 26.1711 67.3817 25.8482 67.2528 25.5484ZM16.862 48.1772C15.9091 48.1772 14.9776 47.8946 14.1854 47.3652C13.3931 46.8359 12.7756 46.0834 12.411 45.2031C12.0463 44.3228 11.9509 43.3541 12.1368 42.4196C12.3227 41.485 12.7815 40.6266 13.4553 39.9528C14.1291 39.279 14.9875 38.8202 15.9221 38.6343C16.8566 38.4484 17.8253 38.5438 18.7056 38.9085C19.5859 39.2731 20.3384 39.8906 20.8677 40.6829C21.3971 41.4751 21.6797 42.4066 21.6797 43.3594C21.6784 44.6368 21.1704 45.8615 20.2672 46.7647C19.364 47.6679 18.1393 48.1759 16.862 48.1772ZM50.586 12.0443H56.2227L61.3873 24.0886H50.586V12.0443ZM50.586 48.1772C49.6331 48.1772 48.7017 47.8946 47.9094 47.3652C47.1171 46.8359 46.4996 46.0834 46.135 45.2031C45.7703 44.3228 45.6749 43.3541 45.8608 42.4196C46.0467 41.485 46.5056 40.6266 47.1793 39.9528C47.8531 39.279 48.7115 38.8202 49.6461 38.6343C50.5806 38.4484 51.5493 38.5438 52.4296 38.9085C53.3099 39.2731 54.0624 39.8906 54.5917 40.6829C55.1211 41.4751 55.4037 42.4066 55.4037 43.3594C55.4024 44.6368 54.8944 45.8615 53.9912 46.7647C53.088 47.6679 51.8633 48.1759 50.586 48.1772ZM62.6303 40.9506H59.8793C59.3487 38.8872 58.1484 37.0583 56.4666 35.7505C54.7847 34.4427 52.7164 33.7299 50.586 33.724V28.9063H62.6303V40.9506Z" fill="#ACD037"/>
</svg>
