<svg width="67" height="57" viewBox="0 0 67 57" fill="none" xmlns="http://www.w3.org/2000/svg">
<path d="M60.7857 17.6544L66.0218 12.4184L61.2849 7.68146L55.5631 13.3999C52.0456 11.2894 47.9452 10.0499 43.55 10.0499C30.6223 10.0499 20.1 20.5689 20.1 33.4999C20.1 46.4309 30.6223 56.9499 43.55 56.9499C56.4776 56.9499 67 46.4309 67 33.4999C66.9973 27.6241 64.7782 21.9655 60.7857 17.6544ZM43.55 50.2499C34.314 50.2499 26.8 42.7359 26.8 33.4999C26.8 24.264 34.314 16.7499 43.55 16.7499C52.7859 16.7499 60.3 24.264 60.3 33.4999C60.3 42.7359 52.7859 50.2499 43.55 50.2499Z" fill="#ACD037"/>
<path d="M40.2 23.45H46.9V36.85H40.2V23.45ZM36.85 0H50.25V6.7H36.85V0ZM3.35 16.75H16.75V23.45H3.35V16.75ZM3.35 43.55H16.75V50.25H3.35V43.55ZM0 30.15H13.3665V36.85H0V30.15Z" fill="#ACD037"/>
</svg>
