<svg width="65" height="57" viewBox="0 0 65 57" fill="none" xmlns="http://www.w3.org/2000/svg">
<path d="M60.9382 24.4259H61.0022C62.1042 24.4259 63.0995 24.8818 63.8104 25.6181C64.545 26.3329 65 27.3304 65 28.4347V28.5012V28.4988V28.5629C65 29.6673 64.545 30.6647 63.8104 31.3772C63.0971 32.1134 62.1018 32.5694 60.9999 32.5694H60.9335H60.9359H60.4595L56.8078 53.6324C56.6531 54.5791 56.1584 55.4365 55.4167 56.0429L55.4096 56.0477C54.7224 56.639 53.8219 57 52.8384 57H12.1568C11.1734 57 10.2729 56.639 9.58092 56.0429L9.58566 56.0477C8.8464 55.4459 8.35107 54.5949 8.19224 53.6538L8.18987 53.63L4.53808 32.567H3.99778C2.89584 32.567 1.90055 32.111 1.18962 31.3748C0.812703 31.0095 0.513106 30.5718 0.308715 30.0879C0.104324 29.6039 -0.000669685 29.0837 3.21404e-06 28.5582V28.4917V28.4299C3.21404e-06 27.3256 0.454996 26.3282 1.18962 25.6157C1.90292 24.8795 2.89821 24.4235 4.00015 24.4235H4.0665H4.06413L60.9382 24.4259ZM15.3844 49.8705C15.6503 49.8524 15.9097 49.7798 16.1465 49.6572C16.3833 49.5347 16.5925 49.3648 16.7613 49.1581L16.7636 49.1557C16.9437 48.9554 17.0804 48.7199 17.1652 48.464C17.2501 48.2082 17.2812 47.9375 17.2566 47.669V47.6761L16.2399 34.4432C16.2218 34.1767 16.1493 33.9168 16.0271 33.6795C15.9048 33.4422 15.7353 33.2325 15.529 33.0634L15.5266 33.061C15.3267 32.8806 15.0917 32.7435 14.8364 32.6585C14.5812 32.5735 14.3111 32.5424 14.0432 32.567H14.0503C13.7844 32.5852 13.525 32.6578 13.2882 32.7803C13.0514 32.9029 12.8422 33.0728 12.6735 33.2795L12.6711 33.2819C12.4911 33.4822 12.3543 33.7177 12.2695 33.9735C12.1847 34.2294 12.1536 34.5001 12.1782 34.7685V34.7614L13.1948 47.9944C13.2286 48.5073 13.4617 48.9865 13.8441 49.3291L13.8465 49.3314C14.2123 49.6794 14.6976 49.8733 15.202 49.8729H15.228H15.2257L15.3844 49.8705ZM28.4299 47.8376V34.6047V34.5857C28.4307 34.3219 28.3777 34.0607 28.2742 33.8181C28.1707 33.5755 28.0189 33.3567 27.828 33.175C27.6461 32.9839 27.4273 32.8318 27.1849 32.7281C26.9425 32.6244 26.6816 32.5712 26.418 32.5718H26.3801C26.1169 32.571 25.8562 32.6241 25.6142 32.7278C25.3721 32.8316 25.1538 32.9837 24.9725 33.175C24.7818 33.3573 24.6301 33.5766 24.5266 33.8195C24.4231 34.0624 24.37 34.3239 24.3706 34.5881V47.859C24.3706 48.4147 24.6004 48.9158 24.9725 49.2697C25.1544 49.4608 25.3732 49.6129 25.6156 49.7166C25.858 49.8203 26.1189 49.8735 26.3825 49.8729H26.4204C26.6836 49.8737 26.9443 49.8206 27.1863 49.7169C27.4284 49.6131 27.6467 49.461 27.828 49.2697C28.0213 49.0874 28.1753 48.8673 28.2805 48.623C28.3856 48.3788 28.4397 48.1155 28.4394 47.8495V47.8353L28.4299 47.8376ZM40.6176 47.8376V34.6047V34.5857C40.6184 34.3219 40.5654 34.0607 40.4619 33.8181C40.3584 33.5755 40.2065 33.3567 40.0157 33.175C39.8338 32.9839 39.6149 32.8318 39.3725 32.7281C39.1301 32.6244 38.8692 32.5712 38.6057 32.5718H38.5678C38.3045 32.571 38.0439 32.6241 37.8018 32.7278C37.5598 32.8316 37.3414 32.9837 37.1601 33.175C36.9694 33.3573 36.8177 33.5766 36.7142 33.8195C36.6108 34.0624 36.5577 34.3239 36.5582 34.5881V47.859C36.5582 48.4147 36.7881 48.9158 37.1601 49.2697C37.342 49.4608 37.5609 49.6129 37.8033 49.7166C38.0457 49.8203 38.3066 49.8735 38.5701 49.8729H38.608C38.8713 49.8737 39.1319 49.8206 39.374 49.7169C39.616 49.6131 39.8344 49.461 40.0157 49.2697C40.209 49.0874 40.3629 48.8673 40.4681 48.623C40.5733 48.3788 40.6274 48.1155 40.6271 47.8495V47.8353L40.6176 47.8376ZM51.7886 47.9944L52.8052 34.7614C52.8282 34.4938 52.7963 34.2243 52.7115 33.9694C52.6268 33.7146 52.4909 33.4798 52.3123 33.2795L52.3147 33.2819C52.1464 33.0749 51.9377 32.9045 51.7013 32.7811C51.465 32.6578 51.206 32.5841 50.9403 32.5646H50.9331C50.6661 32.5417 50.3971 32.5736 50.1429 32.6586C49.8886 32.7435 49.6543 32.8797 49.4544 33.0586L49.4568 33.0562C49.2502 33.2249 49.0802 33.4341 48.9571 33.671C48.8341 33.9078 48.7606 34.1674 48.7411 34.4337V34.4408L47.7245 47.6738C47.7016 47.9414 47.7335 48.2109 47.8182 48.4658C47.903 48.7206 48.0388 48.9554 48.2174 49.1557L48.215 49.1533C48.3834 49.3603 48.5921 49.5307 48.8284 49.654C49.0648 49.7774 49.3237 49.851 49.5895 49.8705H49.7791C50.2841 49.8705 50.77 49.6768 51.1369 49.3291C51.5242 48.9869 51.7617 48.5058 51.7981 47.9896V47.9825L51.7886 47.9944ZM15.1096 9.28349L12.1592 22.3882H7.96949L11.1734 8.36203C11.5597 6.49773 12.5716 4.91842 13.9744 3.81409L13.991 3.80222C15.4028 2.65484 17.1664 2.03075 18.9841 2.03529H19.0742H19.0694H24.3682V2.01629C24.3682 1.46057 24.5981 0.959462 24.9701 0.605602C25.1522 0.413871 25.3713 0.2613 25.6141 0.157184C25.8569 0.0530683 26.1184 -0.000411828 26.3825 2.38784e-06H38.6152C39.1697 2.38784e-06 39.6697 0.230368 40.0228 0.603227C40.2135 0.785543 40.3652 1.00483 40.4687 1.24776C40.5722 1.49068 40.6252 1.75216 40.6247 2.01629V2.03529H46.0112C47.9093 2.03529 49.6511 2.70026 51.0161 3.81172L51.0019 3.79984C52.4394 4.92417 53.434 6.52159 53.81 8.30978L53.8195 8.35965L57.0234 22.3858H52.8337L49.8833 9.28111C49.6689 8.38181 49.164 7.57866 48.4473 6.99646L48.4402 6.98934C47.7427 6.4121 46.866 6.0971 45.9614 6.09875H40.6176V6.11775C40.6184 6.38156 40.5654 6.64276 40.4619 6.88533C40.3584 7.1279 40.2065 7.34674 40.0157 7.52844C39.8338 7.71956 39.6149 7.87159 39.3725 7.9753C39.1301 8.079 38.8692 8.1322 38.6057 8.13166H26.3825C26.1192 8.13243 25.8586 8.07933 25.6166 7.9756C25.3745 7.87187 25.1562 7.71971 24.9748 7.52844C24.7841 7.34612 24.6324 7.12683 24.529 6.88391C24.4255 6.64099 24.3724 6.3795 24.3729 6.11537V6.09637H19.0291C18.1224 6.09535 17.2439 6.41207 16.5456 6.99171L16.5527 6.98696C15.8412 7.5645 15.339 8.36067 15.1238 9.25262L15.119 9.28111L15.1096 9.28349Z" fill="#ACD037"/>
</svg>
