<svg width="74" height="57" viewBox="0 0 74 57" fill="none" xmlns="http://www.w3.org/2000/svg">
<path d="M45.9232 52.3857V52.1699H32.3858V52.3857L32.3882 52.4924C32.3882 53.6879 31.9148 54.8344 31.0723 55.6798C30.2297 56.5251 29.087 57 27.8954 57C26.7039 57 25.5611 56.5251 24.7186 55.6798C23.876 54.8344 23.4027 53.6879 23.4027 52.4924L23.405 52.381V52.1699H21.8617C21.2038 52.1699 20.5656 51.9442 20.0532 51.5301C19.5407 51.1161 19.1848 50.5386 19.0446 49.8936L19.0422 49.8747L10.0213 7.02062L2.31433 5.73308C1.58033 5.58432 0.932697 5.15512 0.508271 4.53614C0.0838461 3.91717 -0.0841345 3.1569 0.0398185 2.41596C0.163772 1.67503 0.56995 1.01145 1.17254 0.565419C1.77513 0.119392 2.52694 -0.0741492 3.26913 0.0256848L3.25495 0.0233136L12.8999 1.6357C14.0745 1.83725 14.9962 2.72881 15.242 3.87171L15.2443 3.89068L16.8798 11.6302L45.0157 13.9824C44.8419 14.9097 44.7533 15.851 44.751 16.7946V16.804C44.751 17.7572 44.8337 18.6915 44.9944 19.5996L44.9802 19.5048C44.2059 19.7496 43.5487 20.2721 43.1341 20.9724C42.7195 21.6727 42.5765 22.5017 42.7326 23.301L42.7303 23.2797L44.4295 35.586C44.5335 36.3756 44.8928 37.068 45.4174 37.5897C45.8948 38.0663 46.5495 38.365 47.275 38.3721H47.2774C47.4381 38.3721 47.5965 38.3555 47.7477 38.3271L47.7312 38.3295C48.537 38.1182 49.2326 37.6075 49.6771 36.9008C50.1216 36.1942 50.2818 35.3445 50.1253 34.5237L50.1276 34.5451L49.2012 27.8537C50.6716 29.3886 52.4362 30.6092 54.389 31.4421C56.3418 32.275 58.4423 32.703 60.5643 32.7003C60.6659 32.7003 60.7675 32.7003 60.8668 32.6861L61.0866 32.6742L59.5055 41.9265C59.4676 42.1508 59.352 42.3544 59.179 42.5015C59.006 42.6486 58.7868 42.7296 58.5601 42.7303H23.4287L24.2015 46.3985H57.6597C58.4042 46.4282 59.1085 46.7456 59.625 47.2844C60.1416 47.8231 60.4304 48.5415 60.431 49.2891C60.4316 50.0366 60.1439 50.7555 59.6283 51.2951C59.1126 51.8347 58.4089 52.1533 57.6644 52.1842H54.9087V52.3999C54.9087 53.5954 54.4354 54.7419 53.5928 55.5873C52.7503 56.4326 51.6075 56.9075 50.416 56.9075C49.2244 56.9075 48.0816 56.4326 47.2391 55.5873C46.3965 54.7419 45.9232 53.5954 45.9232 52.3999V52.3857ZM49.1326 52.3857C49.1331 52.5627 49.1702 52.7376 49.2416 52.8994C49.313 53.0613 49.4171 53.2065 49.5474 53.3258C49.6776 53.4452 49.8311 53.5361 49.9982 53.5928C50.1653 53.6495 50.3423 53.6708 50.518 53.6553C50.6937 53.6398 50.8643 53.5879 51.0189 53.5028C51.1736 53.4178 51.309 53.3014 51.4165 53.1611C51.524 53.0208 51.6012 52.8596 51.6434 52.6878C51.6856 52.5159 51.6917 52.3372 51.6614 52.1628V52.1699H49.1563C49.1436 52.2412 49.1373 52.3134 49.1374 52.3857H49.1326ZM26.6145 52.3857C26.615 52.5627 26.6521 52.7376 26.7235 52.8994C26.7949 53.0613 26.899 53.2065 27.0292 53.3258C27.1594 53.4452 27.3129 53.5361 27.48 53.5928C27.6471 53.6495 27.8241 53.6708 27.9998 53.6553C28.1755 53.6398 28.3461 53.5879 28.5008 53.5028C28.6554 53.4178 28.7908 53.3014 28.8983 53.1611C29.0058 53.0208 29.0831 52.8596 29.1252 52.6878C29.1674 52.5159 29.1736 52.3372 29.1433 52.1628V52.1699H26.6357C26.6239 52.2396 26.6184 52.3103 26.6192 52.381V52.3857H26.6145ZM35.7536 19.4858C34.9475 19.6966 34.2516 20.2072 33.8069 20.914C33.3623 21.6208 33.2024 22.4708 33.3595 23.2915L33.3572 23.2702L35.0564 35.5765C35.1604 36.3661 35.5196 37.0585 36.0443 37.5802C36.5217 38.0568 37.1764 38.3555 37.9019 38.3627H37.9043C38.065 38.3627 38.2233 38.3461 38.3746 38.3176L38.3581 38.32C39.1639 38.1087 39.8595 37.598 40.304 36.8913C40.7485 36.1847 40.9087 35.335 40.7521 34.5143L40.7545 34.5356L39.0552 22.2293C38.9572 21.4697 38.6096 20.7647 38.0674 20.2256C37.5738 19.731 36.9073 19.4494 36.2098 19.4408H36.2074C36.0443 19.4408 35.886 19.4574 35.7324 19.4882L35.7489 19.4858H35.7536ZM26.3805 19.4858C25.5717 19.6956 24.8733 20.2074 24.4279 20.9164C23.9825 21.6255 23.8237 22.4785 23.9841 23.301L23.9817 23.2797L25.681 35.586C25.7849 36.3756 26.1442 37.068 26.6688 37.5897C27.1462 38.0663 27.8009 38.365 28.5264 38.3721H28.5288C28.6895 38.3721 28.8479 38.3555 28.9991 38.3271L28.9826 38.3295C29.7891 38.1192 30.4856 37.6088 30.9307 36.902C31.3758 36.1951 31.5361 35.3448 31.379 34.5237L31.3814 34.5451L29.6798 22.2316C29.5818 21.4721 29.2341 20.767 28.6919 20.228C28.1989 19.7326 27.532 19.4508 26.8343 19.4431H26.8319C26.6712 19.4431 26.5152 19.4597 26.364 19.4882L26.3805 19.4858ZM47.1521 16.8112C47.1528 13.2392 48.5677 9.81372 51.0856 7.28838C52.3323 6.03797 53.8124 5.04617 55.4411 4.36961C57.0699 3.69306 58.8156 3.345 60.5784 3.34531C62.3413 3.34562 64.0868 3.6943 65.7154 4.37143C67.3439 5.04856 68.8236 6.04088 70.0699 7.29174C71.3162 8.5426 72.3047 10.0275 72.9791 11.6617C73.6534 13.2958 74.0003 15.0472 74 16.8159C73.9991 20.3885 72.5836 23.8144 70.065 26.34C67.5464 28.8655 64.131 30.2839 60.5702 30.2829C57.0093 30.282 53.5946 28.8618 51.0774 26.335C48.5601 23.8081 47.1465 20.3814 47.1474 16.8088L47.1521 16.8112ZM50.9973 16.8112C50.9973 18.0732 51.2451 19.3229 51.7265 20.4889C52.2079 21.6548 52.9134 22.7143 53.8029 23.6067C54.6924 24.4991 55.7483 25.207 56.9104 25.6899C58.0726 26.1729 59.3182 26.4215 60.5761 26.4215C61.834 26.4215 63.0795 26.1729 64.2417 25.6899C65.4038 25.207 66.4598 24.4991 67.3493 23.6067C68.2387 22.7143 68.9443 21.6548 69.4257 20.4889C69.907 19.3229 70.1548 18.0732 70.1548 16.8112C70.1551 14.2617 69.146 11.8166 67.3494 10.0136C65.5528 8.21065 63.116 7.19758 60.5749 7.19727C58.0338 7.19695 55.5967 8.20942 53.7997 10.0119C52.0027 11.8144 50.9929 14.2593 50.9926 16.8088L50.9973 16.8112ZM58.6547 20.6548V18.7389H56.7451C56.2348 18.7389 55.7455 18.5356 55.3847 18.1736C55.024 17.8116 54.8213 17.3207 54.8213 16.8088C54.8213 16.2969 55.024 15.8059 55.3847 15.444C55.7455 15.082 56.2348 14.8787 56.7451 14.8787H58.6547V12.9628C58.6547 12.4509 58.8573 11.9599 59.2181 11.5979C59.5789 11.236 60.0682 11.0326 60.5784 11.0326C61.0887 11.0326 61.578 11.236 61.9388 11.5979C62.2995 11.9599 62.5022 12.4509 62.5022 12.9628V14.8787H64.4118C64.922 14.8787 65.4114 15.082 65.7721 15.444C66.1329 15.8059 66.3356 16.2969 66.3356 16.8088C66.3356 17.3207 66.1329 17.8116 65.7721 18.1736C65.4114 18.5356 64.922 18.7389 64.4118 18.7389H62.5022V20.6524C62.5022 21.1643 62.2995 21.6553 61.9388 22.0172C61.578 22.3792 61.0887 22.5826 60.5784 22.5826C60.0682 22.5826 59.5789 22.3792 59.2181 22.0172C58.8573 21.6553 58.6547 21.1643 58.6547 20.6524V20.6548Z" fill="#ACD037"/>
</svg>
