<svg width="50" height="57" viewBox="0 0 50 57" fill="none" xmlns="http://www.w3.org/2000/svg">
<path fill-rule="evenodd" clip-rule="evenodd" d="M24.9375 0C22.4794 0 18.3718 0.944063 14.5065 1.995C10.5521 3.06375 6.56571 4.32844 4.22158 5.09437C3.24151 5.41803 2.37261 6.01159 1.71471 6.80687C1.05681 7.60215 0.636593 8.56688 0.502332 9.59025C-1.62092 25.5396 3.30602 37.3599 9.28389 45.1796C11.8189 48.5247 14.8415 51.4704 18.2507 53.9184C19.6258 54.891 20.9012 55.6356 21.9842 56.145C22.9817 56.6152 24.054 57 24.9375 57C25.821 57 26.8898 56.6152 27.8908 56.145C29.1964 55.5104 30.4455 54.7655 31.6243 53.9184C35.0336 51.4705 38.0562 48.5247 40.5911 45.1796C46.569 37.3599 51.496 25.5396 49.3727 9.59025C49.2387 8.56639 48.8186 7.60109 48.1607 6.8052C47.5028 6.00932 46.6338 5.41511 45.6535 5.09081C42.2506 3.97508 38.8213 2.94166 35.3685 1.99144C31.5032 0.947625 27.3956 0 24.9375 0ZM32.5826 18.3326C32.9171 17.9982 33.3708 17.8102 33.8438 17.8102C34.3168 17.8102 34.7704 17.9982 35.1049 18.3326C35.4394 18.6671 35.6273 19.1207 35.6273 19.5938C35.6273 20.0668 35.4394 20.5204 35.1049 20.8549L24.4174 31.5424C24.2519 31.7083 24.0554 31.8399 23.839 31.9297C23.6226 32.0195 23.3906 32.0657 23.1563 32.0657C22.922 32.0657 22.69 32.0195 22.4736 31.9297C22.2572 31.8399 22.0606 31.7083 21.8951 31.5424L16.5514 26.1986C16.3858 26.033 16.2544 25.8364 16.1648 25.62C16.0751 25.4036 16.029 25.1717 16.029 24.9375C16.029 24.7033 16.0751 24.4714 16.1648 24.255C16.2544 24.0386 16.3858 23.842 16.5514 23.6764C16.717 23.5108 16.9136 23.3794 17.13 23.2898C17.3464 23.2001 17.5783 23.154 17.8125 23.154C18.0467 23.154 18.2787 23.2001 18.495 23.2898C18.7114 23.3794 18.908 23.5108 19.0736 23.6764L23.1563 27.7626L32.5826 18.3326Z" fill="#ACD037"/>
</svg>
