<svg width="32" height="32" viewBox="0 0 32 32" fill="none" xmlns="http://www.w3.org/2000/svg">
<path d="M11 30.15V23.25L5.84998 27.05C7.29998 28.4 9.04998 29.45 11 30.15Z" fill="#2A5F9E"/>
<path d="M21 30.15C22.95 29.45 24.7 28.4 26.15 27.05L21 23.2V30.15Z" fill="#2A5F9E"/>
<path d="M1.84998 21C1.99998 21.5 2.19998 21.95 2.44998 22.45L4.39998 21H1.84998Z" fill="#2A5F9E"/>
<path d="M27.6 21L29.55 22.45C29.75 22 29.95 21.5 30.15 21H27.6Z" fill="#2A5F9E"/>
<path d="M11.75 19H1.29999C1.44999 19.7 1.64999 20.35 1.84999 21H4.39999L2.44999 22.45C2.84999 23.3 3.29999 24.05 3.84999 24.8L8.99999 21H11V22L5.14999 26.3L5.84999 27L11 23.25V30.15C11.65 30.4 12.3 30.55 13 30.7V19H11.75Z" fill="white"/>
<path d="M30.7 19H19V30.7C19.7 30.55 20.35 30.35 21 30.15V23.25L26.15 27C26.85 26.35 27.45 25.65 28.05 24.9L22.7 21H26.1L29.15 23.25C29.3 23 29.45 22.7 29.55 22.45L27.6 21H30.15C30.35 20.35 30.55 19.7 30.7 19Z" fill="white"/>
<path d="M3.84998 24.8C4.24998 25.35 4.64998 25.85 5.09998 26.35L11 22.05V21.05H8.99998L3.84998 24.8Z" fill="#ED4C5C"/>
<path d="M22.75 21L28.1 24.9C28.3 24.65 28.45 24.4 28.65 24.15C28.7 24.1 28.7 24.05 28.75 24.05C28.9 23.8 29.1 23.5 29.25 23.25L26.1 21H22.75Z" fill="#ED4C5C"/>
<path d="M21 1.84999V8.74999L26.15 4.94999C24.7 3.59999 22.95 2.54999 21 1.84999Z" fill="#2A5F9E"/>
<path d="M11 1.84999C9.04998 2.54999 7.29998 3.59999 5.84998 4.94999L11 8.79999V1.84999Z" fill="#2A5F9E"/>
<path d="M30.15 11C30 10.5 29.8 10.05 29.55 9.54999L27.6 11H30.15Z" fill="#2A5F9E"/>
<path d="M4.39998 11L2.44998 9.54999C2.24998 10.05 2.04998 10.5 1.84998 11H4.39998Z" fill="#2A5F9E"/>
<path d="M20.25 13H30.65C30.5 12.3 30.3 11.65 30.1 11H27.55L29.5 9.55C29.1 8.7 28.65 7.95 28.1 7.2L23 11H21V10L26.85 5.7L26.15 5L21 8.75V1.85C20.35 1.6 19.7 1.45 19 1.3V13H20.25Z" fill="white"/>
<path d="M1.29999 13H13V1.3C12.3 1.45 11.65 1.65 11 1.85V8.75L5.84999 5C5.14999 5.65 4.54999 6.35 3.94999 7.1L9.29999 11H5.89999L2.84999 8.75C2.69999 9 2.54999 9.3 2.44999 9.55L4.39999 11H1.84999C1.64999 11.65 1.44999 12.3 1.29999 13Z" fill="white"/>
<path d="M28.15 7.19999C27.75 6.64999 27.35 6.14999 26.9 5.64999L21 9.94999V10.95H23L28.15 7.19999Z" fill="#ED4C5C"/>
<path d="M9.24999 11L3.94999 7.10001C3.74999 7.35001 3.59999 7.60001 3.39999 7.85001C3.34999 7.90001 3.34999 7.95001 3.29999 7.95001C3.14999 8.20001 2.94999 8.50001 2.79999 8.75001L5.84999 11H9.24999Z" fill="#ED4C5C"/>
<path d="M30.7 13H19V1.3C18.05 1.1 17.05 1 16 1C14.95 1 13.95 1.1 13 1.3V13H1.3C1.1 13.95 1 14.95 1 16C1 17.05 1.1 18.05 1.3 19H13V30.7C13.95 30.9 14.95 31 16 31C17.05 31 18.05 30.9 19 30.7V19H30.7C30.9 18.05 31 17.05 31 16C31 14.95 30.9 13.95 30.7 13Z" fill="#ED4C5C"/>
</svg>
